<svg xmlns="http://www.w3.org/2000/svg" xmlns:xlink="http://www.w3.org/1999/xlink" version="1.1" x="0px" y="0px" width="61.172px" height="34.375px" viewBox="0 0 61.172 34.375" enable-background="new 0 0 61.172 34.375" xml:space="preserve"><g><path fill-rule="evenodd" clip-rule="evenodd" fill="#666666" d="M30.622 34.496c-2.414-0.074-4.435-1.29-6.134-2.975 C16.593 23.7 8.8 15.8 0.9 7.969C0.302 7.4 0.3 6.8 0.6 6.126C1.692 3.5 3.8 1.9 6.2 0.6 c0.752-0.419 1.32-0.019 1.9 0.546c6.573 6.6 13.2 13.2 19.8 19.771c2.695 2.7 3.1 2.7 5.8 0 c6.641-6.589 13.287-13.171 19.938-19.75c0.989-0.979 1.57-1.026 2.733-0.247c1.962 1.3 3.5 3.1 4.7 5.1 c0.474 0.8 0.4 1.451-0.301 2.134c-7.912 7.804-15.794 15.639-23.71 23.439C35.224 33.2 33.3 34.6 30.6 34.496z"/></g></svg>
