<svg xmlns="http://www.w3.org/2000/svg" enable-background="new 0 0 64 64" height="64" version="1.1" viewBox="0 0 64 64" width="64" xml:space="preserve"><path d="M55.7 13.6l-4.4-4.4c-0.5-0.5-1-0.7-1.6-0.7 -0.6 0-1.2 0.2-1.6 0.7l-3.5 3.5 7.6 7.6 3.5-3.5C56.6 16 56.6 14.5 55.7 13.6z"/><polygon points="21.9 35.4 29.6 43 50.6 22 43 14.4 "/><polygon points="20.3 37 18.6 46.3 27.9 44.7 "/><path d="M41.4 50.4H12.6V21.6h20.3l5-5H10.8c-1.8 0-3.2 1.5-3.2 3.2v32.3c0 1.8 1.5 3.2 3.2 3.2h32.3c1.8 0 3.2-1.5 3.2-3.2V29l-5 5V50.4z"/></svg>