<svg xmlns="http://www.w3.org/2000/svg" xmlns:sketch="http://www.bohemiancoding.com/sketch/ns" xmlns:xlink="http://www.w3.org/1999/xlink" height="19px" version="1.1" viewBox="0 0 22 19" width="22px"><title/><defs/><g fill="none" fill-rule="evenodd" stroke="none" stroke-width="1"><path d="M5 2.5 L5 6.5 L6 6.5 L6 2.5 L5 2.5 M10.5 2.5 L10.5 6.5 L11.5 6.5 L11.5 2.5 L10.5 2.5 M16 2.5 L16 6.5 L17 6.5 L17 2.5 L16 2.5 M5.49468664 2 C6.0031648 2 6.3 1.5 5.5 0.5 C4.6885596 1.5 5 2 5.5 2 L5.49468664 2 M10.9946866 2 C11.5031648 2 11.8 1.5 11 0.5 C10.1885596 1.5 10.5 2 11 2 L10.9946866 2 M21 11.3 L21 9 C21 8.4 20.6 8 20 8 L1.991155 8 C1.4468432 8 1 8.5 1 9 L1 11.3 C1.12155486 11.4 1.2 11.5 1.4 11.6 C1.80898421 12 2.2 12.2 2.6 12.4 C2.8173304 12.5 3 12.5 3.2 12.5 C3.54695452 12.5 3.9 12.3 4.5 11.8 C4.57254364 11.7 4.6 11.7 4.7 11.6 C5.58836379 10.8 6.1 10.5 6.9 10.5 C7.72188934 10.5 8.3 10.8 9.3 11.6 C9.34034079 11.7 9.3 11.7 9.4 11.7 C10.1414221 12.3 10.5 12.5 11 12.5 C11.4248189 12.5 11.8 12.3 12.7 11.6 C12.7645088 11.5 12.8 11.5 12.8 11.5 C13.7519461 10.8 14.3 10.5 15 10.5 C15.7194731 10.5 16.2 10.8 17.2 11.6 C17.2791221 11.7 17.3 11.7 17.3 11.7 C18.0408586 12.3 18.4 12.5 18.8 12.5 C18.9771618 12.5 19.3 12.4 19.6 12.3 C19.8798561 12.1 20.2 11.9 20.6 11.6 C20.7152141 11.5 20.9 11.4 21 11.3 Z M21 12.5 L21 17 C21 17.5 20.6 18 20 18 L1.991155 18 C1.44467434 18 1 17.6 1 17 L1 12.6 C1.41986695 12.9 1.8 13.1 2.2 13.3 C2.56158426 13.4 2.9 13.5 3.2 13.5 C3.86565437 13.5 4.4 13.2 5.1 12.5 C5.23269317 12.5 5.2 12.5 5.3 12.4 C6.07066119 11.7 6.4 11.5 6.9 11.5 C7.41365038 11.5 7.8 11.7 8.7 12.4 C8.71981003 12.4 8.7 12.4 8.8 12.5 C9.69424762 13.2 10.2 13.5 11 13.5 C11.732018 13.5 12.3 13.2 13.3 12.4 C13.3764056 12.3 13.4 12.3 13.4 12.3 C14.1900009 11.7 14.6 11.5 15 11.5 C15.3940596 11.5 15.8 11.7 16.6 12.4 C16.6467379 12.4 16.6 12.4 16.7 12.5 C17.5893224 13.2 18.1 13.5 18.8 13.5 C19.1577861 13.5 19.6 13.4 20 13.1 C20.3377588 13 20.7 12.8 21 12.5 Z M16.4946866 2 C17.0031648 2 17.3 1.5 16.5 0.5 C15.6885596 1.5 16 2 16.5 2 Z M0 9 L0 17 C0 18.1 0.9 19 2 19 L20.008845 19 C21.1085295 19 22 18.1 22 17 L22 9 C22 7.9 21.1 7 20 7 L1.991155 7 C0.891470458 7 0 7.9 0 9 Z" fill="#000000"/></g></svg>