<?xml version="1.0" ?><svg height="60px" version="1.1" viewBox="0 0 60 60" width="60px" xmlns="http://www.w3.org/2000/svg" xmlns:sketch="http://www.bohemiancoding.com/sketch/ns" xmlns:xlink="http://www.w3.org/1999/xlink"><title/><defs/><g fill="none" fill-rule="evenodd" id="flat" stroke="none" stroke-width="1"><g id="facebook"><path d="M30,60 C46.5685433,60 60,46.5685433 60,30 C60,13.4314567 46.5685433,0 30,0 C13.4314567,0 0,13.4314567 0,30 C0,46.5685433 13.4314567,60 30,60 Z" fill="#346DA6" id="Facebook"/><path d="M25.4622239,47.314313 L25.4622239,29.9989613 L21.9432889,29.9989612 L21.9432889,24.2593563 L25.4622239,24.2593563 L25.4622239,20.7883864 C25.4622239,16.1066422 26.8619948,12.730619 31.9881023,12.730619 L38.0863595,12.730619 L38.0863595,18.45844 L33.7922546,18.45844 C31.6418944,18.45844 31.1518737,19.8873763 31.1518737,21.3837609 L31.1518737,24.2593553 L37.7694231,24.2593558 L36.8661728,29.9989613 L31.1518737,29.9989613 L31.1518737,47.3143123 L25.4622239,47.314313 Z" fill="#FFFFFF"/></g></g></svg>