<?xml version="1.0" ?><svg height="60px" version="1.1" viewBox="0 0 60 60" width="60px" xmlns="http://www.w3.org/2000/svg" xmlns:sketch="http://www.bohemiancoding.com/sketch/ns" xmlns:xlink="http://www.w3.org/1999/xlink"><title/><defs/><g fill="none" fill-rule="evenodd" id="flat" stroke="none" stroke-width="1"><g id="youtube"><path d="M30,60 C46.5685433,60 60,46.5685433 60,30 C60,13.4314567 46.5685433,0 30,0 C13.4314567,0 0,13.4314567 0,30 C0,46.5685433 13.4314567,60 30,60 Z" fill="#CA4638"/><path d="M41.7165691,28.8461538 L18.2830115,28.8461538 C14.5576143,28.8461538 11.5384615,31.5950586 11.5384615,35.2974069 L11.5384615,41.7568229 C11.5384615,45.458763 14.5576143,48.4615385 18.2830115,48.4615385 L41.7165691,48.4615385 C45.4411275,48.4615385 48.4615385,45.4591712 48.4615385,41.7568229 L48.4615385,35.3484259 C48.4615385,31.6460777 45.4411275,28.8461538 41.7165691,28.8461538 Z M22.8783803,34.099887 L20.618863,34.099887 L20.618863,44.541939 L18.4346194,44.541939 L18.4346194,34.099887 L16.1755371,34.099887 L16.1755371,32.3229041 L22.8783803,32.3229041 L22.8783803,34.099887 Z M28.6661908,44.9879673 L26.7286536,44.9879673 L26.7286536,44.0000504 C26.368819,44.3656668 25.9985419,44.6441373 25.6099902,44.8326893 C25.2231789,45.0287674 24.8485507,45.1214589 24.484365,45.1214589 C24.0344631,45.1214589 23.700735,44.9879673 23.4709978,44.7178152 C23.2464819,44.4480592 23.1307431,44.0491689 23.1307431,43.509657 L23.1307431,35.9727303 L25.0682804,35.9727303 L25.0682804,42.8889409 C25.0682804,43.1020521 25.1104859,43.2561418 25.1883702,43.3500216 C25.2723461,43.4486549 25.4050542,43.4934162 25.5869294,43.4934162 C25.7265992,43.4934162 25.9089096,43.4312257 26.1264637,43.3048643 C26.3466285,43.1773144 26.545473,43.0160946 26.7277834,42.8204126 L26.7277834,35.9727303 L28.6653206,35.9727303 L28.6653206,44.9879673 L28.6661908,44.9879673 Z M36.7848764,42.879038 C36.7848764,43.5155987 36.6334587,44.0048038 36.329318,44.3466531 C36.0273529,44.6877103 35.5861531,45.1036336 35.0126803,45.1036336 C34.6310904,45.1036336 33.749561,45.0398587 33.4545576,44.9075554 C33.1582488,44.7772328 32.8789093,44.575609 32.6261114,44.2971385 L32.6261114,44.9875712 L30.6668187,44.9875712 L30.6668187,32.5209629 L32.6261114,32.5209629 L32.6261114,36.7039631 C32.8884817,36.4314343 33.1656456,36.2210959 33.4558629,36.0788898 C33.7521716,35.9339108 34.5932359,35.8641941 34.8943309,35.8641941 C35.5082687,35.8641941 35.9764452,35.806361 36.2992956,36.190991 C36.6238863,36.5756211 36.7844413,37.138504 36.7844413,37.8764708 L36.7844413,42.879038 L36.7848764,42.879038 Z M43.8323254,40.5486791 L40.1256379,40.5486791 L40.1256379,42.2472307 C40.1256379,42.7213833 40.1874232,43.0505569 40.3144749,43.2347515 C40.4441371,43.4193422 40.6625615,43.5088647 40.9714884,43.5088647 C41.2934685,43.5088647 41.5175493,43.4308296 41.6459062,43.2751554 C41.7716525,43.1182929 41.8386592,42.7776319 41.8386592,42.2468346 L41.8386592,41.8364569 L43.8327605,41.8364569 L43.8327605,42.2991221 C43.8327605,43.2228679 43.5917105,43.9192424 43.1017786,44.3890377 C42.6188084,44.8532874 41.8934829,45.0854122 40.9271073,45.0854122 C40.0586312,45.0854122 39.3742058,44.8390271 38.876442,44.342692 C38.3804185,43.8511102 38.1276206,43.1678076 38.1276206,42.2991221 L38.1276206,38.2496134 C38.1276206,37.4704504 38.402609,36.8295323 38.9521508,36.3379506 C39.5008224,35.8463688 40.2039574,35.6011721 41.0733037,35.6011721 C41.9609246,35.6011721 42.6427393,35.8289397 43.1191829,36.2844747 C43.5951914,36.7411982 43.8331956,37.3955842 43.8331956,38.2500095 L43.8331956,40.5486791 L43.8323254,40.5486791 Z M40.9897629,37.1777196 C40.6799658,37.1777196 40.4611064,37.2589237 40.3257877,37.4272736 C40.1895988,37.5849283 40.1256379,37.8566649 40.1256379,38.234957 L40.1256379,39.1460272 L41.8386592,39.1460272 L41.8386592,38.234957 C41.8386592,37.8566649 41.769477,37.5849283 41.6341583,37.4272736 C41.5027556,37.2589237 41.2843312,37.1777196 40.9897629,37.1777196 Z M33.4371532,37.2957626 C33.2992239,37.2957626 33.1608595,37.3230947 33.0259759,37.3829084 C32.8910923,37.4407416 32.7583843,37.5354136 32.6265465,37.6586062 L32.6265465,43.2747593 C32.7823152,43.4197383 32.9367787,43.5314434 33.0860208,43.5956145 C33.2356981,43.6578049 33.3892913,43.6926632 33.5533271,43.6926632 C33.7917665,43.6926632 34.5088249,43.6288883 34.6206478,43.499754 C34.7307302,43.3722042 34.7881645,43.1678076 34.7881645,42.8794341 L34.7881645,38.2226774 C34.7881645,37.9168747 34.722028,37.6871266 34.5845338,37.5294719 C34.4435587,37.3741938 33.6977831,37.2957626 33.4371532,37.2957626 Z M35.8707613,26.6068156 C36.2654026,26.6068156 36.6717867,26.4932392 37.0903329,26.2743767 C37.5122342,26.0526125 37.916102,25.7280493 38.3002587,25.3044177 L38.3002587,26.4546895 L40.4047328,26.4546895 L40.4047328,16.0636932 L38.3002587,16.0636932 L38.3002587,23.9518638 C38.1056641,24.177773 37.8884226,24.3630601 37.653567,24.5106265 C37.4161951,24.6565348 37.2199229,24.72866 37.0655892,24.72866 C36.8684782,24.72866 36.7242098,24.6739444 36.6386552,24.562026 C36.5505844,24.4525947 36.5023551,24.2751834 36.5023551,24.0310357 L36.5023551,16.0636932 L34.4024943,16.0636932 L34.4024943,24.7485566 C34.4024943,25.3678381 34.5266323,25.8308484 34.7707143,26.1375876 C35.0181515,26.4488864 35.3817583,26.6068156 35.8707613,26.6068156 Z M29.6814771,26.7179049 C30.6368362,26.7179049 31.3866966,26.4642233 31.933994,25.9589327 C32.4766783,25.450326 32.7488591,24.7568468 32.7488591,23.8673033 L32.7488591,18.4981244 C32.7488591,17.7076493 32.4703875,17.0560358 31.9180574,16.5540613 C31.3598559,16.0533304 30.6473208,15.8013069 29.7766775,15.8013069 C28.8213184,15.8013069 28.0588764,16.0396515 27.4935454,16.5163407 C26.9282144,16.9930299 26.6455489,17.6317935 26.6455489,18.4396782 L26.6455489,23.8262665 C26.6455489,24.7100069 26.9215042,25.4092893 27.4725762,25.933233 C28.0244868,26.455104 28.7609269,26.7179049 29.6814771,26.7179049 Z M28.8091562,18.3600918 C28.8091562,18.133768 28.8896781,17.9517971 29.0482057,17.8092048 C29.2105077,17.6695142 29.4181033,17.6011196 29.6743475,17.6011196 C29.9532386,17.6011196 30.1780289,17.6695142 30.3495574,17.8092048 C30.5202471,17.9517971 30.6058017,18.133768 30.6058017,18.3600918 L30.6058017,24.0215019 C30.6058017,24.2992252 30.5215053,24.5193312 30.3529125,24.6789185 C30.1847391,24.8385058 29.95911,24.9168486 29.6739281,24.9168486 C29.3962953,24.9168486 29.1815701,24.8409928 29.0326884,24.6818201 C28.8838068,24.5255489 28.8087368,24.3071009 28.8087368,24.0215019 L28.8087368,18.3600918 L28.8091562,18.3600918 Z M21.3512323,26.455104 L23.7186608,26.455104 L23.7186608,19.7822838 L26.4740204,11.5384615 L24.0680085,11.5384615 L22.6026772,17.1700267 L22.4537956,17.1700267 L20.9163301,11.5384615 L18.5312874,11.5384615 L21.350813,20.0446701 L21.350813,26.455104 L21.3512323,26.455104 Z" fill="#FFFFFF"/></g></g></svg>